<?xml version="1.0" encoding="UTF-8"?>
<svg version="1.1" xmlns="http://www.w3.org/2000/svg" width="657" height="468">
<path d="M0 0 C1.0223877 0.24943359 1.0223877 0.24943359 2.06542969 0.50390625 C29.89809798 7.44600365 53.32897628 21.2851869 74 41 C74.85464844 41.79019531 75.70929688 42.58039062 76.58984375 43.39453125 C87.66865767 53.9482829 95.83552505 66.57254033 103 80 C103.53238281 80.96035156 104.06476563 81.92070313 104.61328125 82.91015625 C122.57921213 116.6601091 124.55575999 159.04946984 114.15234375 195.36328125 C104.90100972 224.55986425 88.91599822 251.22077422 65.234375 271.0859375 C61.63874679 274.16610852 58.20147926 277.41817343 54.74267578 280.65039062 C51.25583056 283.8926761 47.68237786 286.98111365 44 290 C40.54894544 288.49508808 38.13275903 286.48416021 35.375 283.9375 C34.05628906 282.72900391 34.05628906 282.72900391 32.7109375 281.49609375 C31.81632812 280.67238281 30.92171875 279.84867187 30 279 C28.33538494 277.49772356 26.6687591 275.99767181 25 274.5 C15 265.5 15 265.5 12.4921875 263.2421875 C10.85260121 261.76707382 9.21200345 260.29308348 7.5703125 258.8203125 C2.95773296 254.67930659 -1.62663602 250.51022881 -6.1875 246.3125 C-10.38494691 242.45071537 -14.63438918 238.67108182 -19 235 C-17.64571539 231.89587239 -16.22865747 230.08524276 -13.625 227.9375 C3.14739 213.70082652 16.64996029 199.97445689 22 178 C22.19207031 177.24847656 22.38414062 176.49695313 22.58203125 175.72265625 C25.61361506 155.97486266 21.07298255 137.80671258 10.203125 121.265625 C8.55668496 119.0754066 6.83857966 117.03060909 5 115 C4.12988281 113.99259766 4.12988281 113.99259766 3.2421875 112.96484375 C-8.91347879 99.76653663 -26.59817606 93.14439921 -44.1953125 91.74609375 C-66.13218951 90.97155709 -85.24982481 100.10320245 -101.1796875 114.8203125 C-104.10434885 117.55669501 -107.00052066 120.320807 -109.88671875 123.09765625 C-113.2226565 126.29598064 -116.65157974 129.36057295 -120.14477539 132.38549805 C-122.76724815 134.6676947 -125.3196213 137.01782242 -127.875 139.375 C-134.0131436 145.02349112 -140.2116808 150.60273311 -146.421875 156.171875 C-151.01448104 160.29644476 -155.58179449 164.44621893 -160.125 168.625 C-163.36217216 171.60218281 -166.61137729 174.55952856 -169.9375 177.4375 C-174.12109857 181.06212089 -178.1643461 184.83385067 -182.22241211 188.59741211 C-185.71071336 191.82675871 -189.2473418 194.98499037 -192.84375 198.09375 C-195.77240362 200.68284958 -198.63398177 203.34194681 -201.5 206 C-205.56014963 209.7655356 -209.65411402 213.47220026 -213.84375 217.09375 C-216.77240413 219.68285002 -219.63396673 222.34196234 -222.5 225 C-225.98446153 228.23129787 -229.47041508 231.45035962 -233.0625 234.5625 C-233.67351562 235.09746094 -234.28453125 235.63242188 -234.9140625 236.18359375 C-236.54493023 237.60373138 -238.18811161 239.00973121 -239.8359375 240.41015625 C-256.07474791 254.48155305 -265.55641398 272.59961223 -267.16015625 294.15234375 C-267.91730776 313.9370418 -260.20597015 332.54744859 -247 347 C-236.82004778 357.17995222 -223.12148811 364.22826968 -209 367 C-207.2675 367.3403125 -207.2675 367.3403125 -205.5 367.6875 C-186.14251852 369.41584656 -167.61180464 364.83912555 -152 353 C-147.6984415 349.30279269 -143.61378116 345.37301548 -139.52294922 341.44628906 C-137.68552094 339.70135077 -135.79541665 338.02791579 -133.875 336.375 C-129.89960015 332.95030489 -126.05194291 329.39132526 -122.21044922 325.81787109 C-119.57550947 323.38166315 -116.92120105 321.08657218 -114 319 C-110.54894544 320.50491192 -108.13275903 322.51583979 -105.375 325.0625 C-104.05242187 326.27486328 -104.05242187 326.27486328 -102.703125 327.51171875 C-101.81109375 328.33285156 -100.9190625 329.15398437 -100 330 C-98.37681317 331.4603512 -96.75183814 332.91871748 -95.125 334.375 C-91.35261768 337.76777152 -87.60916532 341.19036352 -83.875 344.625 C-80.63782784 347.60218281 -77.38862271 350.55952856 -74.0625 353.4375 C-69.86247457 357.07400001 -65.80164409 360.85802742 -61.74243164 364.65014648 C-58.25609124 367.89299306 -54.68237511 370.9811159 -51 374 C-52.56332922 377.99207282 -55.36049144 380.4160785 -58.5 383.1875 C-59.03608887 383.66944824 -59.57217773 384.15139648 -60.12451172 384.64794922 C-61.22230712 385.63391707 -62.32240457 386.61732787 -63.42480469 387.59814453 C-65.66887981 389.59527401 -67.89562709 391.61148701 -70.125 393.625 C-71.74973533 395.0836282 -73.37473359 396.54196358 -75 398 C-76.66692647 399.49971128 -78.33359149 400.99971321 -80 402.5 C-80.82242187 403.23992187 -81.64484375 403.97984375 -82.4921875 404.7421875 C-84.18592894 406.26708244 -85.87861169 407.79315402 -87.5703125 409.3203125 C-92.67493295 413.92539823 -97.78209573 418.52333073 -103 423 C-104.14275391 423.99580078 -104.14275391 423.99580078 -105.30859375 425.01171875 C-140.32973552 454.70239754 -181.65549288 465.88095743 -226.97119141 462.79785156 C-257.98926285 459.68606321 -286.25602355 445.60792894 -310 426 C-311.08087891 425.13375 -311.08087891 425.13375 -312.18359375 424.25 C-315.92150739 421.18640931 -319.07586257 417.79725803 -322.1953125 414.109375 C-323.38698647 412.71650932 -324.61102699 411.35062404 -325.8671875 410.015625 C-354.92080973 378.97842213 -364.26779411 337.42071895 -363.17480469 296.10693359 C-362.36966891 273.66101876 -355.02638352 251.44760541 -344 232 C-343.62504395 231.33661621 -343.25008789 230.67323242 -342.86376953 229.98974609 C-332.42535906 211.82143398 -317.99026325 196.28634511 -302.046875 182.76171875 C-299.35167387 180.44199411 -296.74006111 178.03401855 -294.125 175.625 C-288.78408166 170.71158938 -283.40203898 165.84620217 -278 161 C-276.33307353 159.50028872 -274.66640851 158.00028679 -273 156.5 C-269.66666667 153.5 -266.33333333 150.5 -263 147.5 C-262.17242187 146.75492188 -261.34484375 146.00984375 -260.4921875 145.2421875 C-258.85260121 143.76707382 -257.21200345 142.29308348 -255.5703125 140.8203125 C-250.9796939 136.69902232 -246.41552893 132.55126212 -241.875 128.375 C-238.00361736 124.8149821 -234.09052085 121.31294132 -230.1171875 117.8671875 C-226.89111482 115.02205329 -223.7326456 112.10367121 -220.56689453 109.19189453 C-215.74415109 104.75776372 -210.8765888 100.3748176 -206 96 C-204.33307353 94.50028872 -202.66640851 93.00028679 -201 91.5 C-198.52497766 89.27170886 -196.04928246 87.0442116 -193.5703125 84.8203125 C-188.9796939 80.69902232 -184.41552893 76.55126212 -179.875 72.375 C-176.00632178 68.81746901 -172.09665875 65.31710425 -168.125 61.875 C-165.38176506 59.45449858 -162.69118757 56.97795822 -160 54.5 C-156.03858486 50.85323651 -152.04611259 47.25187557 -147.97265625 43.73046875 C-146.54765099 42.48041463 -145.14092717 41.20941477 -143.74609375 39.92578125 C-122.28960274 20.19132001 -98.29416086 7.16948219 -70 0 C-69.31131836 -0.17934082 -68.62263672 -0.35868164 -67.91308594 -0.54345703 C-47.02161707 -5.72260749 -20.81063609 -5.21316944 0 0 Z " fill="#1D1D1D" transform="translate(363,4)"/>
<path d="M0 0 C2.92643237 1.32856194 5.0700763 2.79564177 7.390625 5.01171875 C8.01340332 5.60098145 8.63618164 6.19024414 9.27783203 6.79736328 C10.25405518 7.73298096 10.25405518 7.73298096 11.25 8.6875 C12.60592129 9.97095019 13.96268222 11.25351396 15.3203125 12.53515625 C15.96387695 13.14375488 16.60744141 13.75235352 17.27050781 14.37939453 C19.75940704 16.7115957 22.32892255 18.94016481 24.9140625 21.1640625 C27.82363123 23.72491887 30.65845566 26.36412017 33.5 29 C36.96283368 32.2116335 40.42648515 35.41102953 44 38.5 C48.11204293 42.05683038 52.0876962 45.75583684 56.07543945 49.45043945 C61.0066565 54.01611674 65.99390882 58.51656761 71 63 C72.667057 64.49956619 74.33371995 65.99957053 76 67.5 C78.47502234 69.72829114 80.95071754 71.9557884 83.4296875 74.1796875 C88.54526039 78.77226252 93.62498486 83.40114292 98.68139648 88.05859375 C101.39230141 90.54929488 104.13342549 92.99006084 106.9375 95.375 C135.0870868 119.95468078 154.32636526 152.85951411 160 190 C160.27457031 191.69576172 160.27457031 191.69576172 160.5546875 193.42578125 C161.36691418 200.20163234 161.24441336 207.05957864 161.25 213.875 C161.25067474 214.61332062 161.25134949 215.35164124 161.25204468 216.11233521 C161.2357476 227.33797557 160.699958 238.0699535 158 249 C157.83371094 249.72074707 157.66742187 250.44149414 157.49609375 251.18408203 C154.71360818 263.09466611 150.35634161 274.02434394 145 285 C144.50628906 286.01707031 144.01257813 287.03414063 143.50390625 288.08203125 C125.83262261 322.27321178 93.5606034 349.19507999 57.16699219 361.31201172 C53.2612144 362.55203896 49.33045421 363.67976163 45.375 364.75 C44.64829102 364.94875732 43.92158203 365.14751465 43.17285156 365.35229492 C31.17360084 368.4421682 19.1697928 369.36665454 6.8125 369.3125 C6.13746429 369.31034485 5.46242859 369.3081897 4.76693726 369.30596924 C-36.47815243 369.09566845 -72.49262681 352.88702604 -102.56640625 325.18359375 C-105.18167273 322.83699028 -107.8847429 320.63647175 -110.625 318.4375 C-114.71707416 315.12815733 -118.45498071 311.65651983 -122.12109375 307.88671875 C-124.5515861 305.4461204 -127.13290235 303.21868798 -129.7421875 300.97265625 C-132.49446488 298.56798484 -135.1862632 296.10008205 -137.875 293.625 C-143.21610969 288.71181553 -148.59707088 283.8452074 -154 279 C-159.40293305 274.15478907 -164.78363904 269.28791402 -170.125 264.375 C-173.36217216 261.39781719 -176.61137729 258.44047144 -179.9375 255.5625 C-184.12109857 251.93787911 -188.1643461 248.16614933 -192.22241211 244.40258789 C-195.11364128 241.72598962 -198.01889404 239.07688821 -201 236.5 C-205.16566161 232.89917386 -209.18600048 229.14609026 -213.22265625 225.40234375 C-216.11381617 222.72584071 -219.01898132 220.07681276 -222 217.5 C-226.16566161 213.89917386 -230.18600048 210.14609026 -234.22265625 206.40234375 C-237.11381617 203.72584071 -240.01898132 201.07681276 -243 198.5 C-247.11837462 194.94004906 -251.10037457 191.2366879 -255.08203125 187.52539062 C-257.95977768 184.85115728 -260.87341393 182.23471008 -263.84765625 179.66796875 C-275.34784701 169.64209089 -286.57529569 158.77746821 -295 146 C-295.680625 144.9790625 -296.36125 143.958125 -297.0625 142.90625 C-302.16726748 134.93971893 -306.17995507 126.63091401 -310 118 C-304.87757255 112.78310155 -299.74059118 107.66053679 -294.1875 102.90234375 C-291.45453162 100.52563732 -288.78917157 98.07806913 -286.125 95.625 C-279.98586616 89.97757421 -273.78833443 84.39728056 -267.578125 78.828125 C-262.98551896 74.70355524 -258.41820551 70.55378107 -253.875 66.375 C-250.02997489 62.83878318 -246.14363093 59.36122277 -242.19140625 55.9453125 C-239.82951202 53.84865773 -237.52413411 51.69852816 -235.21728516 49.54174805 C-230.01597845 44.6828077 -224.82762693 40.11361901 -219 36 C-219.91248181 41.09469013 -221.49748046 45.91854145 -223.0625 50.84375 C-228.49304029 69.12656898 -224.66136441 88.3910545 -215.84375 104.88671875 C-209.48378319 115.62589999 -200.46343498 124.15887279 -191.046875 132.23828125 C-184.33198451 138.01770035 -177.84213179 144.05748661 -171.32128906 150.05371094 C-168.57727462 152.57156064 -165.81348326 155.06009128 -163 157.5 C-159.12182987 160.86322638 -155.34472189 164.33335671 -151.56689453 167.80810547 C-146.74415109 172.24223628 -141.8765888 176.6251824 -137 181 C-135.33307353 182.49971128 -133.66640851 183.99971321 -132 185.5 C-131.175 186.2425 -130.35 186.985 -129.5 187.75 C-100.75 213.625 -100.75 213.625 -72 239.5 C-70.76056641 240.61375 -70.76056641 240.61375 -69.49609375 241.75 C-67.83777017 243.24482689 -66.18407559 244.7448058 -64.53515625 246.25 C-62.04057746 248.51994847 -59.52403302 250.76287704 -57 253 C-56.17113281 253.75410156 -55.34226562 254.50820313 -54.48828125 255.28515625 C-42.38050981 265.83647277 -27.16163678 272.99180716 -11 274 C-10.20464844 274.05285156 -9.40929687 274.10570312 -8.58984375 274.16015625 C11.31671501 274.83445795 30.33048955 266.8117539 44.80859375 253.34375 C57.70337009 239.55254536 64.61824915 221.792646 65.375 203 C64.51092525 180.68433025 54.76049617 161.96836234 38.625 146.76171875 C36.98503095 145.28206718 35.3350437 143.81345208 33.67578125 142.35546875 C30.70178731 139.73748576 27.78709714 137.06129648 24.875 134.375 C21.5731069 131.33842366 18.25792965 128.3214226 14.875 125.375 C13.96041016 124.56289062 13.96041016 124.56289062 13.02734375 123.734375 C11.47500979 122.40636676 9.87399593 121.13507511 8.25390625 119.890625 C7.32449219 119.14296875 6.39507812 118.3953125 5.4375 117.625 C4.13619141 116.62339844 4.13619141 116.62339844 2.80859375 115.6015625 C0.43677014 112.18982486 0.83066492 110.35656744 1.50073242 106.37304688 C1.66549072 105.58994141 1.83024902 104.80683594 2 104 C2.14606689 103.28908203 2.29213379 102.57816406 2.44262695 101.84570312 C2.9120206 99.70189781 3.4222351 97.57070623 3.9375 95.4375 C10.62697084 66.09394868 9.30456908 36.62742351 0.98828125 7.7734375 C0 4 0 4 0 0 Z " fill="#1D1D1D" transform="translate(495,98)"/>
</svg>
