<?xml version="1.0" encoding="UTF-8"?>
<svg version="1.1" xmlns="http://www.w3.org/2000/svg" width="2240" height="653">
<path d="M0 0 C33.99 0.33 67.98 0.66 103 1 C103.02578125 10.4153125 103.0515625 19.830625 103.078125 29.53125 C103.10331094 35.51955165 103.12949643 41.50782175 103.16015625 47.49609375 C103.20856626 56.98713921 103.25306057 66.47807974 103.27099609 75.96923828 C103.28408184 82.88400485 103.31122066 89.79855592 103.35461307 96.71320105 C103.37707393 100.36795085 103.39292006 104.02243642 103.39188385 107.67726135 C103.25670626 135.62689215 103.25670626 135.62689215 114 161 C114.50144531 161.77730469 115.00289062 162.55460938 115.51953125 163.35546875 C122.77569899 173.61297108 133.23955537 180.03741446 145 184 C146.06347656 184.36480469 147.12695312 184.72960937 148.22265625 185.10546875 C160.44255307 187.99932229 174.53831107 187.03810502 186 182 C187.40765625 181.38125 187.40765625 181.38125 188.84375 180.75 C204.09861562 173.20826868 213.82794824 160.43640129 219.30859375 144.53515625 C220.61492496 139.74527514 221.12591906 135.10899025 221.15821838 130.15335083 C221.1680072 129.00919205 221.17779602 127.86503326 221.18788147 126.686203 C221.19363693 125.44542496 221.1993924 124.20464691 221.20532227 122.92626953 C221.21522186 121.60866135 221.22512146 120.29105316 221.23532104 118.93351746 C221.26226674 115.33276707 221.28333198 111.73200371 221.30332303 108.1312089 C221.32524664 104.36356167 221.35260403 100.59595394 221.37937927 96.82833862 C221.4292202 89.69932588 221.4741908 82.5702911 221.51740164 75.44123542 C221.57609844 65.80384906 221.64233892 56.16651471 221.70815182 46.5291748 C221.81159191 31.3528183 221.90497048 16.1764169 222 1 C272.985 0.505 272.985 0.505 325 0 C325.1209091 35.42636708 325.1209091 35.42636708 325.14648438 50.35742188 C325.16423328 60.63635792 325.18501287 70.91521979 325.22631836 81.1940918 C325.25639643 88.68264517 325.27561628 96.17113793 325.28226548 103.65975004 C325.28614687 107.61803518 325.2951469 111.57614703 325.31719017 115.53437614 C325.48607328 147.08275771 325.48607328 147.08275771 322 161 C321.75742966 162.0283345 321.51485931 163.05666901 321.26493835 164.11616516 C320.6575104 166.62175536 319.97702321 169.08917104 319.25 171.5625 C318.99250977 172.44397705 318.73501953 173.3254541 318.46972656 174.23364258 C311.31787414 197.93649562 298.63128595 218.77167004 282 237 C283.5905899 240.70268468 285.91946772 243.35557345 288.5625 246.375 C312.07500474 274.04052868 325.42741394 310.47683394 325.22705078 346.69458008 C325.22648499 348.11519869 325.22680649 349.53581788 325.22793579 350.95643616 C325.22850377 354.76964708 325.21684054 358.5827292 325.20278788 362.3959105 C325.19018688 366.39704608 325.1891027 370.39818541 325.18673706 374.39933777 C325.18054958 381.95670037 325.16417621 389.51400431 325.14403808 397.07134122 C325.11738717 407.29726599 325.10668433 417.5232071 325.09503365 427.74915791 C325.07629328 443.83281578 325.03642956 459.91634992 325 476 C291.01 475.67 257.02 475.34 222 475 C221.96132812 460.64306641 221.96132812 460.64306641 221.921875 445.99609375 C221.89669191 439.91208925 221.87050891 433.82811589 221.83984375 427.74414062 C221.79141533 418.09936784 221.74692812 408.45469864 221.72900391 398.80981445 C221.71592697 391.78335772 221.68881001 384.7571134 221.64538693 377.73077637 C221.62290666 374.01625552 221.60708114 370.30199533 221.60811615 366.58740044 C221.60744338 342.97087071 220.72493539 323.45860512 203.578125 305.3203125 C189.71858592 292.84672733 173.57418672 288.95334598 155.49365234 289.77783203 C140.93016121 291.07534299 128.2727407 298.69900304 118.35546875 309.15234375 C103.25944596 327.40275936 103.38609149 347.8925027 103.39249516 370.4788723 C103.38933019 374.16376762 103.36363895 377.84851082 103.34051514 381.5333252 C103.30022238 388.48494491 103.27967796 395.43647147 103.26654124 402.38818979 C103.24758502 411.80046071 103.19748775 421.21256531 103.14929771 430.62472343 C103.07437154 445.41647349 103.04050377 460.20802278 103 475 C52.015 475.495 52.015 475.495 0 476 C0 318.92 0 161.84 0 0 Z " fill="#FFFFFF" transform="translate(1819,88)"/>
<path d="M0 0 C1.06476563 0.74636719 2.12953125 1.49273437 3.2265625 2.26171875 C24.43364242 17.75920023 40.1113177 37.77492137 52 61 C52.50144531 61.97324219 53.00289062 62.94648438 53.51953125 63.94921875 C60.3549712 78.11919428 64.35638548 93.54850006 67 109 C67.25570597 110.38740308 67.25570597 110.38740308 67.51657772 111.80283451 C68.33549562 117.63579938 68.13376016 123.53088243 68.12025452 129.40782166 C68.12069092 130.77917217 68.12156709 132.15052259 68.12284368 133.52187258 C68.12507515 137.27998879 68.12108582 141.03807639 68.11606562 144.79618895 C68.11174194 148.85268185 68.11320891 152.90917317 68.1139679 156.96566772 C68.11449191 163.99043598 68.11135785 171.01519494 68.10573006 178.03996086 C68.09759854 188.19655815 68.09499814 198.35315095 68.09374207 208.50975115 C68.09155415 224.98868105 68.0849011 241.46760599 68.07543945 257.9465332 C68.06625862 273.95304337 68.05918107 289.95955219 68.05493164 305.96606445 C68.05453756 307.44634916 68.05453756 307.44634916 68.05413551 308.95653861 C68.05283046 313.90737175 68.05156675 318.85820489 68.05032361 323.80903804 C68.03995909 364.87269643 68.02152513 405.93634565 68 447 C34.01 446.67 0.02 446.34 -35 446 C-35.01458252 436.8537793 -35.02916504 427.70755859 -35.04418945 418.28417969 C-35.09297659 388.99921183 -35.15639395 359.71429193 -35.22898628 330.42937379 C-35.24025406 325.87837186 -35.25139257 321.32736963 -35.26245117 316.77636719 C-35.2657567 315.41736844 -35.2657567 315.41736844 -35.269129 314.03091517 C-35.30447387 299.37294886 -35.32935386 284.71498261 -35.35034702 270.05698952 C-35.37213147 255.00965242 -35.40520699 239.96237047 -35.44870156 224.91508031 C-35.47517274 215.63470379 -35.49290148 206.35439597 -35.49934604 197.07398358 C-35.50461381 190.70474483 -35.52087731 184.33559243 -35.54566566 177.9664 C-35.55963318 174.29508825 -35.56886934 170.6239309 -35.56500816 166.95259094 C-35.56093966 162.96292093 -35.58008597 158.97368563 -35.60127258 154.98406982 C-35.59642501 153.83617564 -35.59157743 152.68828146 -35.58658296 151.5056026 C-35.73011993 135.06954276 -41.15579255 120.06202119 -52.6875 108.1796875 C-65.17113577 96.4130173 -80.20200976 90.15350028 -97.546875 90.65625 C-115.02080893 92.39573664 -129.57170819 99.80390348 -141 113.375 C-150.59530864 126.27903576 -153.30496087 139.96357322 -153.2784729 155.70559692 C-153.2842653 156.95145754 -153.2900577 158.19731815 -153.29602563 159.48093212 C-153.31001886 162.91307568 -153.31525051 166.34502428 -153.31667423 169.7771821 C-153.32038662 173.48803918 -153.33555115 177.19885218 -153.34928894 180.90968323 C-153.37150808 187.33033913 -153.38655342 193.75097923 -153.39665604 200.17166519 C-153.41127299 209.4547686 -153.4368182 218.73781695 -153.46498732 228.02088796 C-153.51040062 243.08389767 -153.54703796 258.14691534 -153.578125 273.20996094 C-153.60833295 287.83790482 -153.64269351 302.46582927 -153.68261719 317.09375 C-153.68507874 317.99618243 -153.68754028 318.89861485 -153.69007643 319.82839371 C-153.70245146 324.35586115 -153.71490791 328.88332835 -153.72740483 333.41079545 C-153.83089081 370.94050731 -153.91849854 408.47023269 -154 446 C-204.985 446.495 -204.985 446.495 -257 447 C-257.06623719 405.6995857 -257.12159079 364.39922182 -257.15319599 323.09876953 C-257.15694774 318.21387686 -257.16083075 313.3289843 -257.16479492 308.4440918 C-257.16558185 307.47166929 -257.16636878 306.49924677 -257.16717956 305.49735691 C-257.18020459 289.78816709 -257.2038423 274.07901048 -257.23145839 258.3698403 C-257.25959361 242.22977385 -257.27619335 226.0897247 -257.28226548 209.94963473 C-257.28636515 200.00439443 -257.29927507 190.05924802 -257.3237494 180.11403664 C-257.339707 173.27801658 -257.34437789 166.44204449 -257.34050413 159.6060072 C-257.33859804 155.67229878 -257.34134962 151.73875349 -257.35761642 147.80507469 C-257.43622159 127.80653071 -257.25519594 107.80869886 -251.375 88.5 C-251.12194092 87.64946045 -250.86888184 86.7989209 -250.6081543 85.92260742 C-244.01021434 64.59037733 -233.91075735 44.72458829 -219 28 C-218.24847656 27.14019531 -217.49695312 26.28039062 -216.72265625 25.39453125 C-214.51354307 22.89842217 -212.26680725 20.44370872 -210 18 C-209.42378906 17.35804688 -208.84757812 16.71609375 -208.25390625 16.0546875 C-197.20184741 4.28879858 -183.31877973 -4.7451516 -169 -12 C-168.36852051 -12.32194336 -167.73704102 -12.64388672 -167.08642578 -12.97558594 C-157.98549383 -17.55770937 -148.75008873 -21.04443619 -139 -24 C-138.03320312 -24.29777344 -137.06640625 -24.59554687 -136.0703125 -24.90234375 C-90.46204176 -38.18823131 -38.15505129 -27.45406975 0 0 Z " fill="#FFFFFF" transform="translate(1712,118)"/>
<path d="M0 0 C0.76199707 -0.00067474 1.52399414 -0.00134949 2.30908203 -0.00204468 C13.68036523 0.01396152 24.55436814 0.50550805 35.625 3.25 C36.33366211 3.41097168 37.04232422 3.57194336 37.77246094 3.73779297 C59.96630281 8.82001677 81.42375312 19.27854438 98.625 34.25 C99.83542969 35.29607422 99.83542969 35.29607422 101.0703125 36.36328125 C103.62752078 38.61987727 106.1331468 40.92148474 108.625 43.25 C109.511875 44.07113281 110.39875 44.89226562 111.3125 45.73828125 C122.72106668 56.67689277 131.21239707 69.35750577 138.625 83.25 C139.15738281 84.21035156 139.68976563 85.17070312 140.23828125 86.16015625 C158.20421213 119.9101091 160.18075999 162.29946984 149.77734375 198.61328125 C140.52600972 227.80986425 124.54099822 254.47077422 100.859375 274.3359375 C97.26374679 277.41610852 93.82647926 280.66817343 90.36767578 283.90039062 C86.88083056 287.1426761 83.30737786 290.23111365 79.625 293.25 C76.17394544 291.74508808 73.75775903 289.73416021 71 287.1875 C69.68128906 285.97900391 69.68128906 285.97900391 68.3359375 284.74609375 C67.44132812 283.92238281 66.54671875 283.09867187 65.625 282.25 C63.96038494 280.74772356 62.2937591 279.24767181 60.625 277.75 C50.625 268.75 50.625 268.75 48.1171875 266.4921875 C46.47760121 265.01707382 44.83700345 263.54308348 43.1953125 262.0703125 C38.58273296 257.92930659 33.99836398 253.76022881 29.4375 249.5625 C25.24005309 245.70071537 20.99061082 241.92108182 16.625 238.25 C17.97928461 235.14587239 19.39634253 233.33524276 22 231.1875 C38.77239 216.95082652 52.27496029 203.22445689 57.625 181.25 C57.81707031 180.49847656 58.00914062 179.74695313 58.20703125 178.97265625 C61.23861506 159.22486266 56.69798255 141.05671258 45.828125 124.515625 C44.18168496 122.3254066 42.46357966 120.28060909 40.625 118.25 C39.75488281 117.24259766 39.75488281 117.24259766 38.8671875 116.21484375 C26.71152121 103.01653663 9.02682394 96.39439921 -8.5703125 94.99609375 C-30.50718951 94.22155709 -49.62482481 103.35320245 -65.5546875 118.0703125 C-68.47934885 120.80669501 -71.37552066 123.570807 -74.26171875 126.34765625 C-77.5976565 129.54598064 -81.02657974 132.61057295 -84.51977539 135.63549805 C-87.14224815 137.9176947 -89.6946213 140.26782242 -92.25 142.625 C-98.3881436 148.27349112 -104.5866808 153.85273311 -110.796875 159.421875 C-115.38948104 163.54644476 -119.95679449 167.69621893 -124.5 171.875 C-127.73717216 174.85218281 -130.98637729 177.80952856 -134.3125 180.6875 C-138.49609857 184.31212089 -142.5393461 188.08385067 -146.59741211 191.84741211 C-150.08571336 195.07675871 -153.6223418 198.23499037 -157.21875 201.34375 C-160.14740362 203.93284958 -163.00898177 206.59194681 -165.875 209.25 C-169.93514963 213.0155356 -174.02911402 216.72220026 -178.21875 220.34375 C-181.14740413 222.93285002 -184.00896673 225.59196234 -186.875 228.25 C-190.35946153 231.48129787 -193.84541508 234.70035962 -197.4375 237.8125 C-198.04851562 238.34746094 -198.65953125 238.88242187 -199.2890625 239.43359375 C-200.91993023 240.85373138 -202.56311161 242.25973121 -204.2109375 243.66015625 C-220.44974791 257.73155305 -229.93141398 275.84961223 -231.53515625 297.40234375 C-232.29230776 317.1870418 -224.58097015 335.79744859 -211.375 350.25 C-201.19504778 360.42995222 -187.49648811 367.47826968 -173.375 370.25 C-171.6425 370.5903125 -171.6425 370.5903125 -169.875 370.9375 C-150.51751852 372.66584656 -131.98680464 368.08912555 -116.375 356.25 C-112.0734415 352.55279269 -107.98878116 348.62301548 -103.89794922 344.69628906 C-102.06052094 342.95135077 -100.17041665 341.27791579 -98.25 339.625 C-94.27460015 336.20030489 -90.42694291 332.64132526 -86.58544922 329.06787109 C-83.95050947 326.63166315 -81.29620105 324.33657218 -78.375 322.25 C-74.92394544 323.75491192 -72.50775903 325.76583979 -69.75 328.3125 C-68.42742187 329.52486328 -68.42742187 329.52486328 -67.078125 330.76171875 C-66.18609375 331.58285156 -65.2940625 332.40398437 -64.375 333.25 C-62.75181317 334.7103512 -61.12683814 336.16871748 -59.5 337.625 C-55.72761768 341.01777152 -51.98416532 344.44036352 -48.25 347.875 C-45.01282784 350.85218281 -41.76362271 353.80952856 -38.4375 356.6875 C-34.23747457 360.32400001 -30.17664409 364.10802742 -26.11743164 367.90014648 C-22.63109124 371.14299306 -19.05737511 374.2311159 -15.375 377.25 C-16.93834186 381.2421051 -19.7355447 383.66601078 -22.875 386.4375 C-23.68130859 387.16259766 -23.68130859 387.16259766 -24.50390625 387.90234375 C-26.12297887 389.35682979 -27.74866928 390.80364042 -29.375 392.25 C-31.04241565 393.74916738 -32.70914039 395.24910376 -34.375 396.75 C-35.18066406 397.471875 -35.98632812 398.19375 -36.81640625 398.9375 C-39.15647017 401.05248907 -41.47277931 403.19128829 -43.78540039 405.33618164 C-48.92859615 410.09785177 -54.19808888 414.61076699 -59.6640625 419.00390625 C-62.47279082 421.33102265 -65.14150171 423.76650732 -67.8125 426.25 C-101.99799657 457.57458268 -143.11974639 467.85838732 -188.375 466.25 C-217.40092431 464.27518773 -247.08512994 451.77820438 -269.375 433.25 C-270.71498047 432.18458984 -270.71498047 432.18458984 -272.08203125 431.09765625 C-302.55835406 406.70825974 -322.75455966 369.55920386 -327.19628906 330.71313477 C-330.30001794 287.93510104 -321.18867389 245.93144299 -292.93603516 212.54980469 C-289.52908361 208.67382085 -285.9774928 204.94381371 -282.375 201.25 C-281.88821777 200.74807129 -281.40143555 200.24614258 -280.89990234 199.72900391 C-275.95938462 194.65212722 -270.92362981 189.72788501 -265.53515625 185.125 C-262.76514906 182.7206538 -260.07127504 180.23617026 -257.375 177.75 C-254.07494834 174.7108684 -250.76549985 171.6884332 -247.375 168.75 C-243.49682987 165.38677362 -239.71972189 161.91664329 -235.94189453 158.44189453 C-231.11915109 154.00776372 -226.2515888 149.6248176 -221.375 145.25 C-219.70807353 143.75028872 -218.04140851 142.25028679 -216.375 140.75 C-213.89997766 138.52170886 -211.42428246 136.2942116 -208.9453125 134.0703125 C-204.3546939 129.94902232 -199.79052893 125.80126212 -195.25 121.625 C-191.38132178 118.06746901 -187.47165875 114.56710425 -183.5 111.125 C-180.21991419 108.23080664 -177.01231943 105.25781108 -173.79467773 102.29467773 C-171.04026572 99.76259884 -168.26757501 97.25964732 -165.4375 94.8125 C-161.84541409 91.70035876 -158.35948008 88.48127914 -154.875 85.25 C-150.79198978 81.46368312 -146.67730283 77.73232951 -142.46484375 74.08984375 C-139.73129481 71.68329879 -137.05384343 69.21698556 -134.375 66.75 C-131.09644895 63.73073504 -127.80919043 60.72797862 -124.4375 57.8125 C-121.47937655 55.25329362 -118.60702004 52.61549376 -115.74829102 49.94677734 C-109.49154177 44.11318551 -103.12693352 38.51253642 -96.375 33.25 C-95.82650391 32.8183252 -95.27800781 32.38665039 -94.71289062 31.94189453 C-85.17877496 24.48972921 -75.30309452 18.44558251 -64.375 13.25 C-63.2096875 12.69570312 -62.044375 12.14140625 -60.84375 11.5703125 C-41.55969407 3.18782873 -20.86516196 0.01655698 0 0 Z " fill="#FFFFFF" transform="translate(423.375,96.75)"/>
<path d="M0 0 C33.99 0.33 67.98 0.66 103 1 C103.03867188 22.16125 103.03867188 22.16125 103.078125 43.75 C103.10329866 52.70053462 103.1294735 61.65104787 103.16015625 70.6015625 C103.20864517 84.8004541 103.25310896 98.99927464 103.27099609 113.19824219 C103.28404412 123.54092339 103.31108899 133.8834595 103.35461307 144.22605896 C103.37715707 149.6972574 103.39291493 155.16827736 103.39188385 160.63952637 C103.39113305 165.80077981 103.40925109 170.96163977 103.44116783 176.12279129 C103.44961024 178.00596951 103.45145578 179.88919217 103.44580269 181.77238083 C103.3963499 200.7965049 106.18267448 219.64125007 119.875 234.09765625 C133.1238569 245.95830572 148.84076117 252.57266891 166.86328125 251.84375 C181.47148759 250.29190786 196.15303258 244.04544937 206.3125 233.12890625 C215.80741222 221.15037116 221.13865659 208.07819809 221.15821838 192.80595398 C221.16315636 191.98497138 221.16809434 191.16398879 221.17318195 190.31812793 C221.18852856 187.5697533 221.19690989 184.82140199 221.20532227 182.07299805 C221.21490302 180.10184016 221.22491322 178.13068433 221.23532104 176.15953064 C221.26235479 170.80877079 221.28337267 165.45800214 221.30332303 160.10721183 C221.32519199 154.51512787 221.35257624 148.92307101 221.37937927 143.33100891 C221.42929382 132.74181603 221.47423726 122.1526081 221.51740164 111.56338578 C221.57601686 97.25404036 221.64229711 82.94473058 221.70815182 68.63541698 C221.81170715 46.09030201 221.9050092 23.54515645 222 1 C272.985 0.505 272.985 0.505 325 0 C325.16121214 55.99882699 325.16121214 55.99882699 325.1953125 79.56835938 C325.20316542 84.95271857 325.21122347 90.33707734 325.21972656 95.72143555 C325.22078156 96.39612757 325.22183655 97.07081959 325.22292352 97.76595682 C325.24024461 108.60912135 325.27173703 119.45219964 325.30861118 130.29531331 C325.34623081 141.45202782 325.36798114 152.60870757 325.37635398 163.7654838 C325.38153727 170.01998634 325.393591 176.27429442 325.42292023 182.52873421 C325.45038528 188.43435932 325.45838318 194.33971274 325.45243073 200.24539566 C325.45351723 202.39496406 325.4612835 204.54454304 325.4768219 206.69405556 C325.60601502 225.51404099 323.71695301 244.25767334 317.4375 262.125 C317.09944336 263.10670166 316.76138672 264.08840332 316.41308594 265.09985352 C308.40497046 287.43459532 295.50763567 307.07351387 279 324 C278.26007813 324.81339844 277.52015625 325.62679688 276.7578125 326.46484375 C260.68953205 343.61731614 238.40290262 357.06082932 216 364 C215.34 364 214.68 364 214 364 C214.00184359 364.5702207 214.00368717 365.1404414 214.00558662 365.72794151 C214.04971729 379.59000811 214.0827054 393.45206244 214.10362434 407.31418419 C214.11394563 414.01774998 214.12802217 420.72126895 214.15087891 427.42480469 C214.17254588 433.88922246 214.18455562 440.35359149 214.18975449 446.81804276 C214.19346132 449.28930046 214.20069939 451.76055539 214.21146011 454.23179245 C214.22589332 457.68241984 214.22798137 461.13284357 214.22705078 464.58349609 C214.23424133 465.61423752 214.24143188 466.64497894 214.24884033 467.70695496 C214.246091 468.64367538 214.24334167 469.58039581 214.24050903 470.54550171 C214.24235262 471.36221029 214.24419621 472.17891888 214.24609566 473.02037621 C214 475 214 475 212 477 C208.91222523 477.20426709 205.91377308 477.28312009 202.82446289 477.2746582 C201.39747826 477.2823246 201.39747826 477.2823246 199.94166565 477.29014587 C196.78526585 477.30408835 193.62908325 477.3030816 190.47265625 477.30078125 C188.28551654 477.30466565 186.09837759 477.30899978 183.91123962 477.31376648 C179.32206784 477.32123873 174.73297298 477.32093015 170.14379883 477.31567383 C164.25428035 477.30987816 158.36507625 477.32680785 152.47560978 477.3500185 C147.95725148 477.36472949 143.43896935 477.36563113 138.92059135 477.36250877 C136.74880793 477.36302332 134.57702039 477.36828594 132.40526009 477.37832069 C129.37160775 477.39061659 126.33857361 477.38393453 123.30493164 477.37231445 C122.40248718 477.37995819 121.50004272 477.38760193 120.57025146 477.39547729 C119.74443069 477.38846298 118.91860992 477.38144867 118.06776428 477.3742218 C117.3504416 477.37438954 116.63311892 477.37455729 115.89405918 477.37473011 C113.36429432 476.87422882 112.50026459 476.08206297 111 474 C110.63085651 471.91294575 110.63085651 471.91294575 110.63923645 469.46321106 C110.63511246 468.53353012 110.63098846 467.60384918 110.6267395 466.64599609 C110.63752533 465.62820068 110.64831116 464.61040527 110.65942383 463.56176758 C110.65876671 461.95177132 110.65876671 461.95177132 110.65809631 460.30924988 C110.6601898 456.75415996 110.68354782 453.199539 110.70703125 449.64453125 C110.7126252 447.18259438 110.71689624 444.72065417 110.71989441 442.25871277 C110.73135896 435.77311004 110.76084021 429.28770828 110.79400635 422.80218506 C110.82467242 416.1865104 110.83839235 409.57080334 110.85351562 402.95507812 C110.88570818 389.96996625 110.93634896 376.98499381 111 364 C110.32607208 363.80306046 109.65214417 363.60612091 108.95779419 363.4032135 C108.06696136 363.1400383 107.17612854 362.8768631 106.25830078 362.60571289 C105.37812286 362.34689835 104.49794495 362.0880838 103.59109497 361.82142639 C99.87426276 360.64311988 96.38830826 359.11794446 92.875 357.4375 C92.15344727 357.09307861 91.43189453 356.74865723 90.68847656 356.39379883 C77.42793474 349.90929573 65.96060643 341.832734 55 332 C54.10539062 331.2265625 53.21078125 330.453125 52.2890625 329.65625 C29.56128621 309.79567011 14.20747776 283.32248833 5.6875 254.5625 C5.45716064 253.80243652 5.22682129 253.04237305 4.98950195 252.25927734 C0.30060936 235.48250566 -0.43519627 218.47380659 -0.34057617 201.16699219 C-0.33972753 198.95717378 -0.34020966 196.74735454 -0.34190369 194.53753662 C-0.3427558 188.60494958 -0.32525856 182.67254874 -0.30418181 176.74000454 C-0.28528276 170.51542064 -0.28365424 164.29083131 -0.28010559 158.06622314 C-0.27082367 146.3087474 -0.24626263 134.55135648 -0.21605712 122.79391789 C-0.19227533 113.39744737 -0.17595035 104.00098594 -0.16479492 94.60449219 C-0.16399093 93.93393146 -0.16318694 93.26337073 -0.16235858 92.57248998 C-0.15541789 86.73746862 -0.14896051 80.90244674 -0.14255047 75.06742477 C-0.11443832 50.04488646 -0.05464318 25.02252704 0 0 Z " fill="#FFFFFF" transform="translate(1096,88)"/>
<path d="M0 0 C3.03726958 1.36610268 5.20915026 2.93073807 7.609375 5.23046875 C8.28226563 5.86919922 8.95515625 6.50792969 9.6484375 7.16601562 C10.34195312 7.83310547 11.03546875 8.50019531 11.75 9.1875 C16.4502758 13.67778249 21.1903374 18.08290042 26.10253906 22.34106445 C28.95611955 24.83592799 31.72753045 27.41578456 34.5 30 C37.96201735 33.2124669 41.42652808 36.41106665 45 39.5 C49.16566161 43.10082614 53.18600048 46.85390974 57.22265625 50.59765625 C60.11381617 53.27415929 63.01898132 55.92318724 66 58.5 C70.16566161 62.10082614 74.18600048 65.85390974 78.22265625 69.59765625 C81.11381617 72.27415929 84.01898132 74.92318724 87 77.5 C91.16598947 81.10110954 95.18822682 84.85302585 99.22265625 88.59985352 C102.10370097 91.26991686 105.00586865 93.89375705 108 96.4375 C136.13935344 120.95554424 155.33612797 153.92342235 161 191 C161.27457031 192.69576172 161.27457031 192.69576172 161.5546875 194.42578125 C162.36691418 201.20163234 162.24441336 208.05957864 162.25 214.875 C162.25067474 215.61332062 162.25134949 216.35164124 162.25204468 217.11233521 C162.2357476 228.33797557 161.699958 239.0699535 159 250 C158.83371094 250.72074707 158.66742187 251.44149414 158.49609375 252.18408203 C155.71360818 264.09466611 151.35634161 275.02434394 146 286 C145.50628906 287.01707031 145.01257813 288.03414063 144.50390625 289.08203125 C126.83262261 323.27321178 94.5606034 350.19507999 58.16699219 362.31201172 C54.2612144 363.55203896 50.33045421 364.67976163 46.375 365.75 C45.64829102 365.94875732 44.92158203 366.14751465 44.17285156 366.35229492 C32.17336705 369.44222841 20.16995971 370.36588831 7.8125 370.3125 C7.13812897 370.31067719 6.46375793 370.30885437 5.76895142 370.30697632 C-5.39707752 370.2564021 -16.11213873 369.52558609 -27 367 C-27.73927734 366.83371094 -28.47855469 366.66742187 -29.24023438 366.49609375 C-41.13012464 363.74049687 -52.05044555 359.3436035 -63 354 C-64.01707031 353.50628906 -65.03414062 353.01257813 -66.08203125 352.50390625 C-82.34660641 344.09776419 -96.13146779 331.55377164 -109.5234375 319.26171875 C-111.63747579 317.33107495 -113.77373948 315.43686868 -115.9375 313.5625 C-119.83402275 310.17595159 -123.63352828 306.68662005 -127.43286133 303.19213867 C-132.2556492 298.75790586 -137.12252629 294.37399255 -142 290 C-147.87600701 284.73054855 -153.72145443 279.42994352 -159.53417969 274.09082031 C-164.32574851 269.69316338 -169.15810864 265.34208322 -174 261 C-179.40293305 256.15478907 -184.78363904 251.28791402 -190.125 246.375 C-193.36217216 243.39781719 -196.61137729 240.44047144 -199.9375 237.5625 C-204.12109857 233.93787911 -208.1643461 230.16614933 -212.22241211 226.40258789 C-215.11364128 223.72598962 -218.01889404 221.07688821 -221 218.5 C-225.16566161 214.89917386 -229.18600048 211.14609026 -233.22265625 207.40234375 C-236.11381617 204.72584071 -239.01898132 202.07681276 -242 199.5 C-246.11837462 195.94004906 -250.10037457 192.2366879 -254.08203125 188.52539062 C-256.95977768 185.85115728 -259.87341393 183.23471008 -262.84765625 180.66796875 C-274.34784701 170.64209089 -285.57529569 159.77746821 -294 147 C-294.680625 145.9790625 -295.36125 144.958125 -296.0625 143.90625 C-301.16726748 135.93971893 -305.17995507 127.63091401 -309 119 C-303.87757255 113.78310155 -298.74059118 108.66053679 -293.1875 103.90234375 C-290.45453162 101.52563732 -287.78917157 99.07806913 -285.125 96.625 C-278.98586616 90.97757421 -272.78833443 85.39728056 -266.578125 79.828125 C-261.98551896 75.70355524 -257.41820551 71.55378107 -252.875 67.375 C-249.02997489 63.83878318 -245.14363093 60.36122277 -241.19140625 56.9453125 C-238.82951202 54.84865773 -236.52413411 52.69852816 -234.21728516 50.54174805 C-229.01597845 45.6828077 -223.82762693 41.11361901 -218 37 C-218.91248181 42.09469013 -220.49748046 46.91854145 -222.0625 51.84375 C-227.49304029 70.12656898 -223.66136441 89.3910545 -214.84375 105.88671875 C-208.48378319 116.62589999 -199.46343498 125.15887279 -190.046875 133.23828125 C-183.33198451 139.01770035 -176.84213179 145.05748661 -170.32128906 151.05371094 C-167.57727462 153.57156064 -164.81348326 156.06009128 -162 158.5 C-158.12182987 161.86322638 -154.34472189 165.33335671 -150.56689453 168.80810547 C-145.74415109 173.24223628 -140.8765888 177.6251824 -136 182 C-134.33307353 183.49971128 -132.66640851 184.99971321 -131 186.5 C-130.175 187.2425 -129.35 187.985 -128.5 188.75 C-109.33333333 206 -90.16666667 223.25 -71 240.5 C-69.76056641 241.61375 -69.76056641 241.61375 -68.49609375 242.75 C-66.83777017 244.24482689 -65.18407559 245.7448058 -63.53515625 247.25 C-61.04057746 249.51994847 -58.52403302 251.76287704 -56 254 C-55.17113281 254.75410156 -54.34226562 255.50820313 -53.48828125 256.28515625 C-41.38050981 266.83647277 -26.16163678 273.99180716 -10 275 C-9.20464844 275.05285156 -8.40929687 275.10570312 -7.58984375 275.16015625 C12.31671501 275.83445795 31.33048955 267.8117539 45.80859375 254.34375 C58.70337009 240.55254536 65.61824915 222.792646 66.375 204 C65.49941397 181.38703905 55.49803261 162.4872136 39.0390625 147.17578125 C37.78928809 146.08684279 36.52985532 145.00890458 35.26171875 143.94140625 C32.26799431 141.37166351 29.38921225 138.68607094 26.5 136 C22.97279071 132.72882213 19.44189757 129.47073845 15.8125 126.3125 C14.91144531 125.51392578 14.91144531 125.51392578 13.9921875 124.69921875 C12.4518259 123.38538091 10.8636401 122.12749575 9.2578125 120.89453125 C8.32710937 120.14558594 7.39640625 119.39664063 6.4375 118.625 C5.13619141 117.62339844 5.13619141 117.62339844 3.80859375 116.6015625 C1.43677014 113.18982486 1.83066492 111.35656744 2.50073242 107.37304688 C2.66549072 106.58994141 2.83024902 105.80683594 3 105 C3.14606689 104.28908203 3.29213379 103.57816406 3.44262695 102.84570312 C3.9120206 100.70189781 4.4222351 98.57070623 4.9375 96.4375 C12.44835974 63.49090323 8.75482179 32.25818374 0 0 Z " fill="#FFFFFF" transform="translate(590,193)"/>
<path d="M0 0 C33.99 0.33 67.98 0.66 103 1 C103.01981934 10.02504883 103.03963867 19.05009766 103.06005859 28.34863281 C103.12490689 57.2464116 103.19944219 86.14415818 103.28005161 115.04189713 C103.29257004 119.53281403 103.30500288 124.02373116 103.31738281 128.51464844 C103.31984881 129.40868514 103.3223148 130.30272185 103.32485552 131.22385058 C103.36454709 145.68781988 103.39731035 160.15179695 103.42749982 174.61578885 C103.45864644 189.46423306 103.49726952 204.31264434 103.54279006 219.16105151 C103.57062979 228.31857694 103.59268235 237.47607836 103.60726251 246.63363466 C103.61782876 252.91875728 103.63567664 259.20383335 103.65916704 265.48892084 C103.67249429 269.11159721 103.68269111 272.73420851 103.68421364 276.35691071 C103.68595269 280.29393215 103.70306662 284.23080533 103.7215271 288.16778564 C103.718625 289.86628123 103.718625 289.86628123 103.71566427 291.59908986 C103.83675817 308.93734857 108.12988815 325.62993151 120.390625 338.51171875 C132.66178232 349.89829878 147.06445694 356.37776445 164.01171875 356.1484375 C178.22186988 355.44257378 192.54429433 350.75555339 202.65234375 340.2890625 C204 339 204 339 206 339 C206.27070312 338.42765625 206.54140625 337.8553125 206.8203125 337.265625 C208.02404373 334.95382331 209.38927015 332.89006684 210.875 330.75 C214.65877496 325.1389386 217.62294644 319.3388095 220 313 C223.25046345 315.95496678 225.76962834 318.99405967 228.25 322.625 C232.17979177 328.36198451 236.50997609 333.69431431 241 339 C242.02480469 340.21236328 242.02480469 340.21236328 243.0703125 341.44921875 C246.70784701 345.65021449 250.45497232 349.50019393 254.7109375 353.07421875 C256.40990707 354.50355663 258.07720492 355.97071905 259.7265625 357.45703125 C273.83016041 370.04527184 290.44303176 379.05884153 307 388 C306.46116855 392.98419094 304.14082771 396.49607127 301.5 400.625 C301.04931152 401.33503174 300.59862305 402.04506348 300.13427734 402.77661133 C296.17983237 408.90385113 291.83804023 414.53947577 287 420 C286.55430664 420.51127441 286.10861328 421.02254883 285.64941406 421.54931641 C257.54752474 453.67264974 217.72608265 473.69415007 175.04736328 476.87548828 C129.09256902 479.67025874 86.33322174 464.00406472 52.046875 433.73046875 C51.0301086 432.82158778 50.01433838 431.91158992 49 431 C47.98679687 430.09701172 47.98679687 430.09701172 46.953125 429.17578125 C35.14175452 418.01122392 25.3741991 403.31310733 17.9375 389 C17.41873291 388.00323242 16.89996582 387.00646484 16.36547852 385.97949219 C11.9231542 377.23312059 8.67739234 368.41660888 6 359 C5.53013672 357.46666016 5.53013672 357.46666016 5.05078125 355.90234375 C0.58614562 340.76614004 -0.15764646 324.97906428 -0.12025452 309.2946167 C-0.12069163 307.95194931 -0.12156912 306.60928201 -0.12284368 305.26661515 C-0.12506107 301.61100788 -0.1211055 297.95543035 -0.11606562 294.29982686 C-0.11172136 290.34499065 -0.11321035 286.39015592 -0.1139679 282.43531799 C-0.11449062 275.59452674 -0.11137013 268.75374508 -0.10573006 261.91295624 C-0.09758093 252.02249164 -0.09499634 242.13203165 -0.09374207 232.24156407 C-0.0915569 216.19245285 -0.08491135 200.14334673 -0.07543945 184.09423828 C-0.06625147 168.50992864 -0.05917742 152.9256204 -0.05493164 137.34130859 C-0.05466892 136.3796617 -0.05440619 135.41801481 -0.05413551 134.42722711 C-0.05283041 129.60261972 -0.05156672 124.77801231 -0.05032361 119.9534049 C-0.03996767 79.96893207 -0.02153836 39.98446868 0 0 Z " fill="#FFFFFF" transform="translate(873,88)"/>
</svg>
